<?xml version="1.0" encoding="UTF-8" standalone="no"?>
<!-- Created with Inkscape (http://www.inkscape.org/) -->

<svg
   width="512"
   height="512"
   viewBox="0 0 512 512"
   version="1.1"
   id="svg1"
   xmlns="http://www.w3.org/2000/svg"
   xmlns:svg="http://www.w3.org/2000/svg">
  <defs
     id="defs1" />
  <g
     id="layer1">
    <path
       style="fill:none;stroke:#000000;stroke-width:0.1;stroke-dasharray:none;stroke-opacity:1"
       d="m 67.251549,374.52703 c 0,0 364.658901,-207.82152 388.025491,-193.56148 23.36659,14.26004 -8.43654,193.1294 -8.43654,193.1294"
       id="path3" />
    <path
       style="fill:none;stroke:#000000;stroke-width:0.1;stroke-dasharray:none;stroke-opacity:1"
       d="M 446.6518,374.32466 H 66.6171 c 0,0 48.21809,-127.52416 190.96902,-127.52416 142.75093,0 189.06568,127.52416 189.06568,127.52416 z"
       id="path1" />
    <path
       style="fill:none;stroke:#000000;stroke-width:0.1;stroke-dasharray:none;stroke-opacity:1"
       d="m 446.11124,374.10862 c 0,0 -364.6589,-207.82152 -388.02549,-193.56148 -23.36659,14.26004 8.43654,193.1294 8.43654,193.1294"
       id="path4" />
    <path
       style="fill:#0d6efd;stroke:#000000;stroke-width:0.0448431;stroke-dasharray:none;stroke-opacity:1"
       d="m 68.87145,374.03685 c 0.711328,-0.67916 66.88485,-37.66766 99.73842,-55.75001 43.35194,-23.86057 88.13048,-47.93972 88.77368,-47.73704 1.11115,0.35015 56.28523,30.22065 86.11421,46.62107 36.29277,19.9543 100.37299,55.78452 101.32287,56.65429 0.24159,0.22122 -81.08165,0.39009 -187.85501,0.39009 -103.55456,0 -188.196935,-0.0803 -188.09417,-0.1784 z"
       id="path48" />
    <path
       style="fill:#0d6efd;stroke:#000000;stroke-width:0.0448431;stroke-dasharray:none;stroke-opacity:1"
       d="m 445.52393,370.73441 c -3.48887,-8.55665 -11.06996,-22.32877 -18.07844,-32.84203 -30.61914,-45.93113 -73.46293,-75.74313 -124.65676,-86.7399 l -6.6283,-1.42381 15.3727,-7.90275 c 71.53569,-36.77483 118.03228,-57.5566 135.83202,-60.71048 5.2037,-0.92202 7.06749,-0.64394 9.06377,1.35235 4.49767,4.49766 6.48271,14.40007 6.88715,34.35662 0.47026,23.2045 -1.7643,52.64969 -7.07779,93.26528 -2.52142,19.2734 -9.0888,62.60917 -9.56426,63.11109 -0.0555,0.0586 -0.57308,-1.05123 -1.15009,-2.46637 z"
       id="path49" />
    <path
       style="fill:#0d6efd;stroke:#000000;stroke-width:0.0448431;stroke-dasharray:none;stroke-opacity:1"
       d="m 66.591928,372.78746 c 0,-0.14939 -0.999783,-6.3971 -2.221739,-13.8838 -6.45401,-39.5425 -10.936645,-75.67145 -13.567667,-109.35209 -0.352478,-4.51219 -0.573918,-15.01006 -0.567548,-26.90583 0.0088,-16.34453 0.136083,-20.26559 0.785464,-24.18792 1.575311,-9.51506 3.736363,-15.03849 6.751191,-17.25535 5.710154,-4.1988 33.331023,5.85688 87.295631,31.78095 12.49292,6.00147 55.81235,27.77497 68.11866,34.23824 l 5.11418,2.68597 -2.64781,0.51468 c -6.81955,1.32559 -19.6939,4.77233 -26.2957,7.03993 -29.31086,10.06772 -53.5395,25.39837 -76.36412,48.31933 -17.972631,18.04847 -30.834627,35.92901 -41.955944,58.32644 -2.444529,4.92308 -4.444598,8.82884 -4.444598,8.67945 z"
       id="path50" />
    <path
       style="fill:#0d6efd;stroke:#000000;stroke-width:0.0448431;stroke-dasharray:none;stroke-opacity:1"
       d="m 256.46654,269.33278 c -0.227,-0.20438 -8.42614,-4.57849 -18.22031,-9.72025 -9.79416,-5.14175 -17.76182,-9.3944 -17.7059,-9.45032 0.0559,-0.0559 3.02448,-0.50765 6.59681,-1.00386 18.33406,-2.54664 40.10513,-2.63035 59.06928,-0.22712 8.84566,1.12096 9.2278,0.4711 -4.51903,7.68515 -6.69936,3.51568 -15.02184,7.89872 -18.49439,9.74008 -3.5057,1.85894 -6.49729,3.18265 -6.72646,2.97632 z"
       id="path51" />
    <path
       style="fill:#3485fd;stroke:#000000;stroke-width:0.0448431;stroke-dasharray:none;stroke-opacity:1"
       d="m 67.488789,373.17659 c 0,-1.06889 8.39772,-17.45414 11.993307,-23.40081 17.545521,-29.01817 39.263784,-52.11536 65.360954,-69.51081 12.62142,-8.41299 22.70523,-13.70074 36.79015,-19.29201 10.68013,-4.23967 26.37937,-8.7374 35.87441,-10.27779 1.71443,-0.27813 2.72196,0.18401 18.60987,8.53612 9.23852,4.8566 17.55296,9.27148 18.47652,9.81084 l 1.6792,0.98067 -18.27113,9.80205 c -46.03056,24.69437 -107.17839,58.39602 -154.699265,85.26257 -8.443547,4.77367 -15.455879,8.6794 -15.58296,8.6794 -0.127081,0 -0.231056,-0.2656 -0.231056,-0.59023 z"
       id="path52" />
    <path
       style="fill:#3485fd;stroke:#000000;stroke-width:0.0448431;stroke-dasharray:none;stroke-opacity:1"
       d="m 438.56502,369.45872 c -38.86756,-22.17683 -112.13399,-62.61355 -162.15774,-89.497 l -18.65998,-10.02814 3.86178,-2.03299 c 2.12397,-1.11814 10.51126,-5.53481 18.63842,-9.8148 l 14.77664,-7.78182 3.38479,0.56318 c 10.6118,1.76566 28.19009,7.11626 40.06923,12.19653 39.45951,16.87541 73.48992,47.97446 96.60292,88.28161 4.73956,8.2654 11.31934,21.9891 10.52971,21.96223 -0.17562,-0.006 -3.34622,-1.73794 -7.04577,-3.8488 z"
       id="path53" />
  </g>
</svg>
